<?xml version="1.0" encoding="UTF-8"?>
<svg id="Layer_1" data-name="Layer 1" xmlns="http://www.w3.org/2000/svg" viewBox="0 0 465.88 205.89">
  <defs>
    <style>
      .cls-1 {
        fill: #f7c845;
      }

      .cls-2 {
        fill: #231f20;
      }

      .cls-3 {
        fill: #568b95;
      }
    </style>
  </defs>
  <rect class="cls-2" width="465.88" height="205.89"/>
  <g>
    <g>
      <path class="cls-1" d="M66.75,108.25c0,30.7,24.89,55.58,55.58,55.58v-7.47s-.07,0-.1,0c.06,0,.1-.05,.1-.1v-19.46c0-.06-.05-.11-.11-.11h-7.26c-.06,0-.11,.05-.11,.11v18.99c-23.02-3.59-40.64-23.5-40.64-47.53s17.62-43.94,40.64-47.53v18.99c0,.06,.05,.11,.11,.11h7.26c.06,0,.11-.05,.11-.11v-19.46c0-.06-.04-.1-.1-.1,.03,0,.07,0,.1,0v-7.47c-30.7,0-55.58,24.89-55.58,55.58Z"/>
      <path class="cls-1" d="M181.77,83.92v-31.15c0-.06-.05-.11-.11-.11h-7.26c-.06,0-.11,.05-.11,.11v19.68c-4.43-5.26-9.82-9.69-15.9-13.01v40.01h-24.41v-19.53c0-.06-.05-.11-.11-.11h-7.26c-.06,0-.11,.05-.11,.11v58.71c0,.06,.05,.11,.11,.11h7.26c.06,0,.11-.05,.11-.11v-31.7h24.41v50.14c17.26-9.43,28.97-27.75,28.97-48.81,0-8.73-2.02-16.98-5.6-24.32Zm-1.91,22.99h-13.99v-32.6c8.37,8.41,13.64,19.88,13.99,32.6Zm-13.99,35.25v-27.78h13.64c-1.38,10.79-6.34,20.45-13.64,27.78Z"/>
    </g>
    <g>
      <path class="cls-1" d="M220.24,132.18c1.04-.11,1.69-.3,1.95-.58,.26-.27,.39-.98,.39-2.12v-11.5c0-.95-.15-1.57-.43-1.85-.29-.29-.92-.46-1.9-.53v-.49h7.37v.49c-.97,.07-1.6,.25-1.9,.53-.29,.29-.44,.9-.44,1.85v5.17h8.06v-5.17c0-.95-.14-1.57-.43-1.85-.28-.29-.92-.46-1.9-.53v-.49h7.36v.49c-.98,.07-1.61,.25-1.9,.53-.29,.29-.43,.9-.43,1.85v11.81c0,.96,.14,1.58,.43,1.85,.29,.27,.92,.45,1.9,.54v.49h-7.36v-.49c1.05-.1,1.7-.29,1.95-.57,.26-.28,.38-.99,.38-2.13v-5.16h-8.06v5.47c0,.96,.15,1.58,.44,1.86,.29,.28,.92,.45,1.9,.53v.49h-7.37v-.49Z"/>
      <path class="cls-1" d="M248.27,121.77c.91,.84,1.37,2.04,1.37,3.58h-8.23c.09,2,.54,3.46,1.36,4.37,.82,.91,1.79,1.37,2.92,1.37,.91,0,1.67-.24,2.29-.71,.62-.47,1.2-1.15,1.73-2.02l.45,.15c-.35,1.1-1.02,2.12-1.99,3.05-.97,.93-2.16,1.4-3.57,1.4-1.62,0-2.88-.61-3.77-1.84-.89-1.23-1.33-2.64-1.33-4.24,0-1.74,.51-3.24,1.54-4.5,1.03-1.26,2.37-1.89,4.02-1.89,1.22,0,2.29,.42,3.2,1.26Zm-6.21,.99c-.28,.47-.48,1.05-.6,1.76h5.47c-.1-.86-.26-1.51-.49-1.93-.42-.76-1.13-1.14-2.13-1.14s-1.74,.44-2.26,1.31Z"/>
      <path class="cls-1" d="M253.63,126.95c.79-.52,2.38-1.22,4.76-2.11v-1.1c0-.88-.09-1.49-.26-1.84-.29-.58-.9-.87-1.83-.87-.44,0-.86,.11-1.26,.34-.4,.23-.6,.55-.6,.96,0,.1,.02,.28,.06,.52,.04,.25,.07,.4,.07,.47,0,.48-.16,.82-.48,1.01-.18,.11-.4,.17-.65,.17-.39,0-.69-.13-.9-.38-.21-.25-.31-.54-.31-.85,0-.6,.37-1.24,1.12-1.9,.75-.66,1.84-.99,3.29-.99,1.68,0,2.81,.55,3.41,1.63,.32,.6,.48,1.47,.48,2.61v5.2c0,.5,.03,.85,.1,1.04,.11,.34,.35,.51,.7,.51,.2,0,.36-.03,.49-.09,.13-.06,.35-.21,.67-.44v.67c-.28,.34-.57,.61-.89,.83-.48,.33-.98,.49-1.48,.49-.59,0-1.01-.19-1.28-.57s-.41-.83-.43-1.36c-.66,.57-1.22,.99-1.69,1.27-.79,.47-1.53,.7-2.24,.7-.74,0-1.39-.26-1.93-.78-.55-.52-.82-1.19-.82-1.99,0-1.25,.63-2.3,1.88-3.14Zm4.76-1.47c-.99,.33-1.81,.69-2.46,1.09-1.24,.77-1.87,1.64-1.87,2.62,0,.79,.26,1.37,.78,1.74,.34,.24,.71,.36,1.13,.36,.57,0,1.12-.16,1.64-.48,.52-.32,.78-.73,.78-1.22v-4.11Z"/>
      <path class="cls-1" d="M263.11,132.3c.8-.08,1.35-.24,1.63-.49s.43-.73,.43-1.44v-12.67c0-.57-.05-.96-.14-1.18-.17-.36-.52-.55-1.05-.55-.12,0-.25,.01-.4,.04-.14,.02-.32,.07-.54,.12v-.43c1.17-.31,2.57-.73,4.21-1.24,.06,0,.1,.02,.11,.08,.01,.05,.02,.16,.02,.34v15.55c0,.75,.13,1.24,.39,1.46,.26,.22,.79,.36,1.61,.42v.36h-6.27v-.36Z"/>
      <path class="cls-1" d="M276.69,120.71v.93h-2.64l-.03,7.47c0,.66,.06,1.15,.17,1.49,.21,.6,.61,.89,1.22,.89,.31,0,.58-.07,.81-.22s.49-.38,.78-.7l.34,.29-.29,.39c-.45,.61-.92,1.03-1.43,1.28s-.99,.38-1.45,.38c-1.02,0-1.71-.45-2.07-1.36-.2-.49-.3-1.17-.3-2.05v-7.86h-1.41s-.07-.05-.1-.08c-.02-.03-.03-.06-.03-.1,0-.09,.02-.15,.06-.2,.04-.05,.16-.16,.37-.33,.6-.49,1.03-.89,1.29-1.2s.88-1.12,1.86-2.43c.11,0,.18,0,.2,.02,.02,.02,.03,.08,.03,.2v3.19h2.62Z"/>
      <path class="cls-1" d="M277.55,132.3c.71-.09,1.17-.27,1.39-.52,.22-.25,.33-.86,.33-1.81v-12.45c0-.48-.06-.84-.19-1.07-.13-.23-.43-.34-.91-.34-.1,0-.19,0-.28,.02-.09,.01-.19,.03-.31,.05v-.47c.38-.11,.85-.25,1.41-.41,.56-.16,.95-.28,1.16-.34l1.24-.39,.03,.09v7.96c.55-.62,1.03-1.08,1.45-1.38,.76-.52,1.58-.78,2.46-.78,1.4,0,2.36,.59,2.87,1.76,.28,.62,.42,1.44,.42,2.45v5.29c0,.91,.11,1.51,.32,1.79,.21,.28,.64,.46,1.3,.54v.36h-5.61v-.36c.75-.1,1.24-.28,1.45-.53,.21-.25,.32-.85,.32-1.8v-5.25c0-.84-.14-1.52-.42-2.03-.28-.52-.81-.78-1.59-.78-.68,0-1.33,.24-1.96,.73-.63,.48-.95,.8-.95,.95v6.39c0,.97,.11,1.57,.34,1.81,.22,.24,.7,.42,1.44,.52v.36h-5.72v-.36Z"/>
      <path class="cls-1" d="M296.17,132.67v-.49c.68-.08,1.19-.33,1.53-.77,.34-.44,.93-1.63,1.76-3.59l5.53-13.03h.53l6.62,15.05c.44,1,.79,1.61,1.06,1.85,.26,.24,.71,.4,1.33,.48v.49h-6.75v-.49c.77-.07,1.28-.15,1.5-.25s.34-.34,.34-.73c0-.13-.04-.36-.13-.68s-.21-.67-.36-1.03l-1.06-2.55h-7c-.69,1.74-1.1,2.8-1.24,3.18s-.2,.69-.2,.91c0,.45,.18,.76,.55,.93,.22,.1,.65,.18,1.27,.23v.49h-5.26Zm11.44-6.82l-3.04-7.31-3.06,7.31h6.1Z"/>
      <path class="cls-1" d="M315.5,132.3c.8-.08,1.35-.24,1.63-.49s.43-.73,.43-1.44v-12.67c0-.57-.05-.96-.14-1.18-.17-.36-.52-.55-1.05-.55-.12,0-.25,.01-.4,.04-.14,.02-.32,.07-.54,.12v-.43c1.17-.31,2.57-.73,4.21-1.24,.06,0,.1,.02,.11,.08,.01,.05,.02,.16,.02,.34v15.55c0,.75,.13,1.24,.39,1.46,.26,.22,.79,.36,1.61,.42v.36h-6.27v-.36Z"/>
      <path class="cls-1" d="M322.88,132.3c.8-.08,1.35-.24,1.63-.49s.43-.73,.43-1.44v-12.67c0-.57-.05-.96-.14-1.18-.17-.36-.52-.55-1.05-.55-.12,0-.25,.01-.4,.04-.14,.02-.32,.07-.54,.12v-.43c1.17-.31,2.57-.73,4.21-1.24,.06,0,.1,.02,.11,.08,.01,.05,.02,.16,.02,.34v15.55c0,.75,.13,1.24,.39,1.46,.26,.22,.79,.36,1.61,.42v.36h-6.27v-.36Z"/>
      <path class="cls-1" d="M330.23,132.3c.92-.09,1.51-.24,1.75-.47,.24-.23,.36-.85,.36-1.86v-6.18c0-.56-.04-.95-.12-1.17-.13-.35-.4-.53-.82-.53-.1,0-.19,0-.28,.02-.09,.02-.35,.09-.78,.21v-.4l.56-.18c1.51-.49,2.57-.86,3.16-1.12,.24-.1,.4-.15,.47-.15,.02,.06,.02,.12,.02,.2v9.31c0,.99,.12,1.6,.36,1.85,.24,.25,.77,.41,1.61,.48v.36h-6.3v-.36Zm2.06-17.34c.26-.27,.58-.4,.96-.4s.69,.13,.95,.39c.26,.26,.4,.58,.4,.96s-.13,.69-.4,.95-.58,.39-.95,.39-.7-.13-.96-.39c-.26-.26-.39-.58-.39-.95s.13-.69,.39-.95Z"/>
      <path class="cls-1" d="M339.94,126.95c.79-.52,2.38-1.22,4.76-2.11v-1.1c0-.88-.09-1.49-.26-1.84-.29-.58-.9-.87-1.83-.87-.44,0-.86,.11-1.26,.34-.4,.23-.6,.55-.6,.96,0,.1,.02,.28,.06,.52,.04,.25,.07,.4,.07,.47,0,.48-.16,.82-.48,1.01-.18,.11-.4,.17-.65,.17-.39,0-.69-.13-.9-.38-.21-.25-.31-.54-.31-.85,0-.6,.37-1.24,1.12-1.9,.75-.66,1.84-.99,3.29-.99,1.68,0,2.81,.55,3.41,1.63,.32,.6,.48,1.47,.48,2.61v5.2c0,.5,.03,.85,.1,1.04,.11,.34,.35,.51,.7,.51,.2,0,.36-.03,.49-.09,.13-.06,.35-.21,.67-.44v.67c-.28,.34-.57,.61-.89,.83-.48,.33-.98,.49-1.48,.49-.59,0-1.01-.19-1.28-.57s-.41-.83-.43-1.36c-.66,.57-1.22,.99-1.69,1.27-.79,.47-1.53,.7-2.24,.7-.74,0-1.39-.26-1.93-.78-.55-.52-.82-1.19-.82-1.99,0-1.25,.63-2.3,1.88-3.14Zm4.76-1.47c-.99,.33-1.81,.69-2.46,1.09-1.24,.77-1.87,1.64-1.87,2.62,0,.79,.26,1.37,.78,1.74,.34,.24,.71,.36,1.13,.36,.57,0,1.12-.16,1.64-.48,.52-.32,.78-.73,.78-1.22v-4.11Z"/>
      <path class="cls-1" d="M349.36,132.3c.61-.08,1.04-.23,1.29-.46,.25-.23,.37-.74,.37-1.54v-6.59c0-.55-.05-.94-.15-1.16-.16-.33-.5-.49-1.01-.49-.08,0-.16,0-.24,.01-.08,0-.18,.02-.3,.04v-.45c.35-.1,1.19-.37,2.51-.8l1.22-.4c.06,0,.1,.02,.11,.07,.01,.04,.02,.1,.02,.18v1.91c.79-.74,1.41-1.25,1.86-1.53,.67-.42,1.37-.64,2.1-.64,.59,0,1.12,.17,1.61,.51,.93,.66,1.4,1.83,1.4,3.52v6.05c0,.62,.12,1.07,.37,1.35,.25,.28,.67,.42,1.25,.43v.36h-5.54v-.36c.63-.09,1.07-.26,1.32-.52s.38-.84,.38-1.72v-5.54c0-.74-.14-1.36-.41-1.85s-.78-.73-1.52-.73c-.51,0-1.02,.17-1.55,.52-.29,.2-.67,.53-1.13,.99v7.26c0,.62,.14,1.04,.41,1.25,.28,.21,.71,.33,1.31,.34v.36h-5.67v-.36Z"/>
      <path class="cls-1" d="M371.55,121.27c.78,.55,1.17,1.17,1.17,1.83,0,.29-.1,.55-.3,.8-.2,.24-.51,.37-.92,.37-.3,0-.57-.1-.8-.31-.23-.21-.4-.51-.5-.91l-.15-.62c-.11-.46-.31-.78-.58-.97-.29-.18-.66-.27-1.13-.27-.99,0-1.82,.43-2.5,1.29-.68,.86-1.02,2.01-1.02,3.43,0,1.31,.37,2.48,1.12,3.52s1.76,1.56,3.03,1.56c.9,0,1.7-.29,2.4-.88,.4-.34,.85-.87,1.35-1.61l.36,.22c-.49,1.04-1.01,1.86-1.56,2.47-1.05,1.16-2.26,1.74-3.63,1.74s-2.54-.53-3.58-1.6c-1.04-1.06-1.56-2.51-1.56-4.33s.57-3.33,1.7-4.62,2.56-1.93,4.29-1.93c1.08,0,2.01,.28,2.79,.83Z"/>
      <path class="cls-1" d="M383.22,121.77c.91,.84,1.37,2.04,1.37,3.58h-8.23c.09,2,.54,3.46,1.36,4.37,.82,.91,1.79,1.37,2.92,1.37,.91,0,1.67-.24,2.29-.71,.62-.47,1.2-1.15,1.73-2.02l.45,.15c-.35,1.1-1.02,2.12-1.99,3.05-.97,.93-2.16,1.4-3.57,1.4-1.62,0-2.88-.61-3.77-1.84-.89-1.23-1.33-2.64-1.33-4.24,0-1.74,.51-3.24,1.54-4.5,1.03-1.26,2.37-1.89,4.02-1.89,1.22,0,2.29,.42,3.2,1.26Zm-6.21,.99c-.28,.47-.48,1.05-.6,1.76h5.47c-.1-.86-.26-1.51-.49-1.93-.42-.76-1.13-1.14-2.13-1.14s-1.74,.44-2.26,1.31Z"/>
    </g>
    <g>
      <path class="cls-3" d="M214.1,80.65v.66c-.83-.02-1.46,.04-1.88,.19-.42,.15-.63,.48-.63,.97,0,.15,.03,.34,.1,.56s.23,.52,.47,.89l5.24,7.68,5.11-7.8c.21-.34,.34-.61,.41-.83s.1-.38,.1-.49c0-.51-.27-.84-.82-1.01-.32-.1-.88-.16-1.67-.17v-.66h7.77v.66c-.72,.03-1.36,.25-1.93,.64-.88,.61-1.87,1.75-2.97,3.42l-5.25,8.03v6.92c0,1.38,.22,2.24,.67,2.58,.45,.34,1.44,.55,3,.63v.66h-10.86v-.66c1.61-.09,2.61-.33,3-.72,.39-.39,.58-1.36,.58-2.9v-6.17l-4.66-6.83c-1.61-2.35-2.74-3.86-3.39-4.53-.65-.67-1.44-1.02-2.36-1.07v-.66h9.96Z"/>
      <path class="cls-3" d="M228.61,90.29c1.46-1.59,3.35-2.39,5.65-2.39s4.19,.75,5.7,2.26c1.51,1.51,2.26,3.51,2.26,6.01,0,2.3-.73,4.31-2.19,6.01-1.46,1.7-3.34,2.55-5.66,2.55s-4.1-.82-5.64-2.45c-1.54-1.63-2.31-3.68-2.31-6.15,0-2.3,.73-4.25,2.2-5.85Zm2.77-.44c-1.16,1.05-1.74,2.87-1.74,5.46,0,2.06,.47,3.98,1.4,5.77,.93,1.78,2.23,2.68,3.89,2.68,1.3,0,2.3-.6,3-1.79,.7-1.19,1.05-2.76,1.05-4.69s-.45-3.89-1.34-5.66c-.9-1.77-2.19-2.66-3.88-2.66-.92,0-1.71,.3-2.39,.9Z"/>
      <path class="cls-3" d="M248.81,88.11v11.12c0,.79,.11,1.42,.33,1.89,.43,.88,1.22,1.32,2.36,1.32,.79,0,1.56-.26,2.31-.78,.43-.29,.86-.69,1.3-1.2v-9.52c0-.89-.17-1.48-.52-1.75-.35-.28-1.04-.45-2.08-.5v-.57h5.61v12.23c0,.79,.14,1.33,.43,1.62,.28,.29,.88,.43,1.8,.39v.49c-.64,.17-1.11,.3-1.41,.39-.3,.09-.81,.25-1.51,.48-.3,.1-.96,.35-1.98,.75-.06,0-.09-.02-.1-.08-.01-.05-.02-.11-.02-.18v-2.8c-.79,.94-1.51,1.63-2.15,2.09-.99,.69-2.03,1.04-3.13,1.04-1.01,0-1.96-.36-2.85-1.08-.9-.71-1.35-1.9-1.35-3.57v-9.03c0-.92-.2-1.53-.59-1.84-.25-.2-.8-.33-1.63-.41v-.49h5.2Z"/>
      <path class="cls-3" d="M270.14,88.18v1.25h-3.54l-.03,10.01c0,.88,.07,1.55,.23,2,.28,.8,.82,1.2,1.63,1.2,.42,0,.78-.1,1.09-.3,.31-.2,.66-.51,1.05-.94l.45,.38-.38,.52c-.6,.81-1.24,1.38-1.91,1.72s-1.32,.51-1.95,.51c-1.37,0-2.29-.61-2.78-1.83-.27-.66-.4-1.57-.4-2.74v-10.53h-1.89c-.06-.03-.1-.07-.13-.1-.03-.04-.04-.08-.04-.14,0-.12,.03-.2,.08-.27s.22-.21,.5-.44c.8-.66,1.37-1.2,1.73-1.61,.35-.41,1.18-1.5,2.49-3.26,.15,0,.24,.01,.27,.04,.03,.02,.04,.11,.04,.26v4.27h3.51Z"/>
      <path class="cls-3" d="M271.29,103.71c.95-.13,1.57-.36,1.87-.71,.3-.34,.44-1.15,.44-2.42v-16.68c0-.65-.08-1.13-.25-1.43-.17-.31-.58-.46-1.22-.46-.13,0-.25,0-.37,.03s-.26,.04-.41,.06v-.63c.51-.15,1.14-.33,1.88-.55,.75-.21,1.26-.37,1.55-.46l1.67-.52,.03,.12v10.67c.73-.83,1.38-1.45,1.95-1.84,1.02-.7,2.12-1.04,3.3-1.04,1.88,0,3.16,.79,3.84,2.36,.37,.83,.56,1.93,.56,3.28v7.09c0,1.23,.14,2.03,.42,2.4,.29,.37,.87,.61,1.75,.73v.49h-7.52v-.49c1.01-.14,1.66-.38,1.94-.71,.29-.34,.43-1.14,.43-2.41v-7.04c0-1.12-.19-2.03-.56-2.73-.38-.69-1.08-1.04-2.13-1.04-.9,0-1.78,.32-2.62,.97s-1.27,1.07-1.27,1.27v8.56c0,1.3,.15,2.11,.45,2.43,.3,.33,.94,.56,1.93,.7v.49h-7.66v-.49Z"/>
      <path class="cls-3" d="M298.24,103.53c1.3-.14,2.14-.37,2.54-.7,.39-.33,.59-1.16,.59-2.5v-15.83c0-1.3-.19-2.13-.57-2.5-.38-.37-1.23-.6-2.55-.69v-.66h9.59c3.23,0,5.96,.53,8.2,1.6,4.03,1.91,6.04,5.33,6.04,10.25,0,1.77-.36,3.46-1.08,5.06-.73,1.6-1.82,2.95-3.28,4.05-.93,.7-1.89,1.22-2.88,1.58-1.82,.67-4.05,1.01-6.71,1.01h-9.89v-.66Zm7.17-.94c.28,.19,.87,.28,1.76,.28,2.78,0,5.07-.55,6.86-1.65,2.76-1.69,4.13-4.58,4.13-8.68,0-3.65-1.13-6.4-3.4-8.24-1.95-1.58-4.52-2.37-7.73-2.37-.8,0-1.34,.09-1.62,.26-.29,.17-.43,.56-.43,1.15v18.1c0,.58,.14,.96,.43,1.15Z"/>
      <path class="cls-3" d="M324.05,103.71c1.24-.12,2.02-.33,2.35-.64,.32-.31,.49-1.14,.49-2.49v-8.29c0-.75-.05-1.27-.16-1.56-.17-.47-.54-.71-1.09-.71-.13,0-.25,.01-.37,.03-.12,.02-.47,.12-1.05,.28v-.54l.75-.24c2.03-.66,3.44-1.16,4.24-1.49,.32-.14,.53-.21,.62-.21,.02,.08,.04,.17,.04,.26v12.47c0,1.32,.16,2.15,.48,2.48,.32,.34,1.04,.55,2.16,.64v.49h-8.44v-.49Zm2.76-23.23c.35-.36,.77-.54,1.29-.54s.92,.18,1.28,.53c.35,.35,.53,.78,.53,1.29s-.18,.92-.53,1.27c-.35,.35-.78,.53-1.28,.53s-.94-.18-1.29-.53c-.35-.35-.52-.77-.52-1.27s.17-.92,.52-1.28Z"/>
      <path class="cls-3" d="M336.53,96.5c-.58-.89-.88-1.89-.88-3.01,0-1.36,.54-2.64,1.62-3.86s2.6-1.82,4.57-1.82c.85,0,1.78,.2,2.8,.6,1.02,.4,2,.6,2.94,.6,.24,0,.61,0,1.1-.03,.49-.02,.85-.03,1.07-.03h.21v1.41h-3.01c.21,.49,.37,.91,.49,1.27,.2,.67,.29,1.31,.29,1.91,0,1.32-.55,2.53-1.64,3.64s-2.57,1.66-4.42,1.66c-.29,0-.81-.05-1.56-.16-.33,0-.78,.28-1.34,.85-.55,.57-.83,1.03-.83,1.39s.41,.64,1.22,.82c.53,.12,1.13,.17,1.77,.17,2.98,0,5.01,.17,6.07,.5,1.75,.54,2.63,1.72,2.63,3.51s-1.02,3.29-3.07,4.38-4.11,1.63-6.19,1.63c-1.9,0-3.4-.38-4.52-1.15-1.11-.77-1.67-1.58-1.67-2.42,0-.42,.15-.82,.44-1.22s.87-.99,1.74-1.78l1.14-1.02,.21-.21c-.53-.21-.93-.41-1.19-.61-.46-.36-.69-.77-.69-1.23,0-.43,.2-.9,.6-1.42,.4-.52,1.25-1.35,2.56-2.51-1.05-.35-1.87-.97-2.46-1.86Zm1.84,12.93c1.09,.37,2.35,.55,3.76,.55,1.92,0,3.48-.33,4.69-1,1.2-.67,1.81-1.48,1.81-2.46,0-.78-.49-1.29-1.46-1.55-.6-.15-1.75-.24-3.43-.26-.43-.01-.88-.02-1.36-.04s-.91-.04-1.31-.06c-.26-.01-.67-.06-1.24-.14-.57-.08-.99-.15-1.27-.21-.14,0-.48,.37-1.02,1.09-.55,.74-.82,1.43-.82,2.05,0,.97,.55,1.64,1.64,2.01Zm5.52-11.94c.69-.56,1.04-1.52,1.04-2.9,0-1.1-.28-2.34-.84-3.72-.56-1.38-1.5-2.07-2.81-2.07-1.14,0-1.92,.54-2.35,1.62-.22,.57-.33,1.27-.33,2.1,0,1.41,.34,2.68,1.03,3.8,.68,1.12,1.57,1.69,2.66,1.69,.64,0,1.17-.17,1.6-.52Z"/>
      <path class="cls-3" d="M351.73,103.71c1.24-.12,2.02-.33,2.35-.64,.32-.31,.49-1.14,.49-2.49v-8.29c0-.75-.05-1.27-.16-1.56-.17-.47-.54-.71-1.09-.71-.13,0-.25,.01-.37,.03-.12,.02-.47,.12-1.05,.28v-.54l.75-.24c2.03-.66,3.44-1.16,4.24-1.49,.32-.14,.53-.21,.62-.21,.02,.08,.04,.17,.04,.26v12.47c0,1.32,.16,2.15,.48,2.48,.32,.34,1.04,.55,2.16,.64v.49h-8.44v-.49Zm2.76-23.23c.35-.36,.77-.54,1.29-.54s.92,.18,1.28,.53c.35,.35,.53,.78,.53,1.29s-.18,.92-.53,1.27c-.35,.35-.78,.53-1.28,.53s-.94-.18-1.29-.53c-.35-.35-.52-.77-.52-1.27s.17-.92,.52-1.28Z"/>
      <path class="cls-3" d="M369.97,88.18v1.25h-3.54l-.03,10.01c0,.88,.07,1.55,.23,2,.28,.8,.82,1.2,1.63,1.2,.42,0,.78-.1,1.09-.3,.31-.2,.66-.51,1.05-.94l.45,.38-.38,.52c-.6,.81-1.24,1.38-1.91,1.72s-1.32,.51-1.95,.51c-1.37,0-2.29-.61-2.78-1.83-.27-.66-.4-1.57-.4-2.74v-10.53h-1.89c-.06-.03-.1-.07-.13-.1-.03-.04-.04-.08-.04-.14,0-.12,.03-.2,.08-.27s.22-.21,.5-.44c.8-.66,1.37-1.2,1.73-1.61,.35-.41,1.18-1.5,2.49-3.26,.15,0,.24,.01,.27,.04,.03,.02,.04,.11,.04,.26v4.27h3.51Z"/>
      <path class="cls-3" d="M374.62,96.53c1.07-.69,3.19-1.64,6.38-2.83v-1.48c0-1.18-.11-2-.35-2.47-.39-.78-1.21-1.16-2.45-1.16-.59,0-1.15,.15-1.69,.45-.53,.31-.8,.74-.8,1.29,0,.14,.03,.37,.09,.7,.06,.33,.09,.54,.09,.63,0,.65-.21,1.1-.64,1.35-.24,.15-.53,.23-.87,.23-.52,0-.92-.17-1.2-.51s-.42-.72-.42-1.14c0-.81,.5-1.66,1.5-2.55,1-.89,2.47-1.33,4.4-1.33,2.25,0,3.77,.73,4.57,2.19,.43,.8,.64,1.96,.64,3.49v6.97c0,.67,.05,1.14,.14,1.39,.15,.45,.46,.68,.94,.68,.27,0,.49-.04,.66-.12,.17-.08,.48-.28,.91-.59v.9c-.37,.45-.77,.82-1.2,1.11-.65,.44-1.31,.66-1.98,.66-.79,0-1.36-.25-1.71-.77-.35-.51-.55-1.12-.58-1.82-.88,.76-1.63,1.33-2.26,1.7-1.05,.63-2.06,.94-3,.94-1,0-1.86-.35-2.59-1.05-.73-.7-1.09-1.59-1.09-2.67,0-1.68,.84-3.08,2.52-4.2Zm6.38-1.96c-1.33,.44-2.43,.93-3.3,1.46-1.67,1.03-2.5,2.2-2.5,3.51,0,1.05,.35,1.83,1.04,2.33,.45,.32,.95,.49,1.51,.49,.76,0,1.5-.21,2.2-.64,.7-.43,1.05-.97,1.05-1.63v-5.51Z"/>
      <path class="cls-3" d="M387.33,103.71c1.08-.11,1.81-.32,2.19-.65,.38-.33,.57-.98,.57-1.94v-16.97c0-.76-.06-1.29-.19-1.58-.23-.49-.7-.73-1.41-.73-.16,0-.34,.02-.53,.05s-.43,.09-.72,.16v-.57c1.56-.42,3.45-.97,5.65-1.67,.08,0,.13,.03,.15,.1,.02,.07,.02,.22,.02,.45v20.83c0,1.01,.17,1.66,.52,1.95,.35,.3,1.07,.48,2.15,.57v.49h-8.41v-.49Z"/>
    </g>
  </g>
</svg>